<svg xmlns="http://www.w3.org/2000/svg" xmlns:xlink="http://www.w3.org/1999/xlink" width="2883" height="2147" viewBox="0 0 2883 2147">
    <defs>
        <path id="ddax7e875a" d="M0.001 0L844.842 0 844.842 817.463 0.001 817.463z"/>
        <path id="sgo1w5h1zc" d="M0.001 0L844.842 0 844.842 817.463 0.001 817.463z"/>
    </defs>
    <g fill="none" fill-rule="evenodd">
        <g>
            <g>
                <g transform="translate(718 100) translate(-718 -100) rotate(24 165.233 783.301)">
                    <mask id="42uws96aob" fill="#fff">
                        <use xlink:href="#ddax7e875a"/>
                    </mask>
                    <path fill="#E1F9FF" d="M132.115 731.849L273.791 681.871 273.791 606.252 415.902 552.798 560.62 608.86 560.62 681.871 418.51 734.022 418.51 817.463 706.643 817.463 706.643 734.022 844.842 681.871 844.842 606.252 704.035 555.406 704.035 477.179 560.62 426.332 560.62 349.41 417.207 298.563 417.207 230.628 559.317 174.705 559.317 95.175 421.118 44.328 421.118 -0.001 0.001 -0.001 0.001 683.175z" mask="url(#42uws96aob)"/>
                </g>
                <g transform="translate(718 100) translate(-718 -100) rotate(-156 1503.255 802.132)">
                    <mask id="k8v0v7vi7d" fill="#fff">
                        <use xlink:href="#sgo1w5h1zc"/>
                    </mask>
                    <path fill="#E1F9FF" d="M132.115 731.849L273.791 681.871 273.791 606.252 415.902 552.798 560.62 608.86 560.62 681.871 418.51 734.022 418.51 817.463 706.643 817.463 706.643 734.022 844.842 681.871 844.842 606.252 704.035 555.406 704.035 477.179 560.62 426.332 560.62 349.41 417.207 298.563 417.207 230.628 559.317 174.705 559.317 95.175 421.118 44.328 421.118 -0.001 0.001 -0.001 0.001 683.175z" mask="url(#k8v0v7vi7d)"/>
                </g>
            </g>
        </g>
    </g>
</svg>
